<?xml version="1.0"?>
<svg xmlns="http://www.w3.org/2000/svg" xmlns:xlink="http://www.w3.org/1999/xlink" xmlns:svgjs="http://svgjs.com/svgjs" version="1.1" width="512" height="512" x="0" y="0" viewBox="0 0 512 512" style="enable-background:new 0 0 512 512" xml:space="preserve" class=""><g>
<path xmlns="http://www.w3.org/2000/svg" style="" d="M469.333,40.021H42.667C19.104,40.021,0,59.125,0,82.688v386.645C0,492.896,19.104,512,42.667,512  h426.667C492.896,512,512,492.896,512,469.333V82.688C512,59.125,492.896,40.021,469.333,40.021" fill="#f3f3f3" data-original="#f3f3f3" class=""/>
<path xmlns="http://www.w3.org/2000/svg" style="" d="M469.333,40.021H42.667C19.104,40.021,0,59.125,0,82.688v85.707h512V82.688  C512,59.125,492.896,40.021,469.333,40.021" fill="#21a970" data-original="#f3705a" class=""/>
<g xmlns="http://www.w3.org/2000/svg">
	<path style="" d="M150.795,104.213c0,18.165-14.752,32.896-32.917,32.896S84.96,122.379,84.96,104.213   c0-18.187,14.752-32.917,32.917-32.917S150.795,86.016,150.795,104.213" fill="#ffffff" data-original="#ffffff" class=""/>
	<path style="" d="M427.04,104.213c0,18.165-14.731,32.896-32.917,32.896c-18.165,0-32.896-14.731-32.896-32.896   c0-18.187,14.731-32.917,32.896-32.917C412.309,71.296,427.04,86.016,427.04,104.213" fill="#ffffff" data-original="#ffffff" class=""/>
</g>
<g xmlns="http://www.w3.org/2000/svg">
	<path style="" d="M118.453,0c-12.267,0-22.229,9.963-22.229,22.229v71.669c0,12.288,9.963,22.229,22.229,22.229   s22.229-9.941,22.229-22.229V22.229C140.683,9.963,130.731,0,118.453,0" fill="#878787" data-original="#415a6b" class=""/>
	<path style="" d="M416.939,22.229C416.939,9.963,406.997,0,394.709,0c-12.267,0-22.229,9.963-22.229,22.229v71.669   c0,12.288,9.963,22.229,22.229,22.229c12.288,0,22.229-9.941,22.229-22.229V22.229z" fill="#878787" data-original="#415a6b" class=""/>
</g>
<g xmlns="http://www.w3.org/2000/svg">
	<polygon style="" points="114.208,233.92 198.165,233.92 198.165,441.291 153.664,441.291 153.664,273.376    114.208,273.376  " fill="#fb6d3b" data-original="#55c0eb" class=""/>
	<path style="" d="M306.165,403.915c12.875,0,22.795-4.288,29.813-12.917c7.04-8.587,11.339-20.331,12.917-35.147   c-12.672,8.501-26.315,12.747-40.939,12.747c-19.392,0-35.563-6.379-48.523-19.125C246.475,336.704,240,319.851,240,298.891   c0-20.96,6.976-37.835,20.917-50.603c13.963-12.747,31.499-19.147,52.672-19.147c14.645,0,27.349,2.837,38.123,8.459   c10.795,5.643,19.253,13.504,25.376,23.584c11.669,19.605,17.504,44.128,17.504,73.6c0,18.976-2.315,35.648-6.976,49.984   c-4.629,14.357-10.912,25.664-18.837,33.984c-16.213,16.608-35.893,24.917-59.04,24.917c-9.707,0-18.976-1.419-27.872-4.309   c-8.917-2.859-15.648-5.707-20.192-8.587c-4.565-2.88-9.792-6.56-15.712-11.125l23.125-32.651c1.376,1.184,3.211,2.731,5.504,4.608   c2.272,1.899,6.667,4.395,13.184,7.563C294.315,402.336,300.437,403.915,306.165,403.915 M312.544,329.141   c9.184,0,16.875-2.667,22.997-8.021c6.144-5.333,9.205-12.352,9.205-21.045c0-8.704-2.976-16.245-8.917-22.56   c-5.92-6.336-13.333-9.483-22.251-9.483c-8.896,0-16.149,2.816-21.813,8.437c-5.621,5.621-8.437,12.832-8.437,21.525   c0,8.693,2.56,16.085,7.712,22.08C296.171,326.123,303.349,329.141,312.544,329.141" fill="#fb6d3b" data-original="#55c0eb" class=""/>
</g>
<g xmlns="http://www.w3.org/2000/svg">
</g>
<g xmlns="http://www.w3.org/2000/svg">
</g>
<g xmlns="http://www.w3.org/2000/svg">
</g>
<g xmlns="http://www.w3.org/2000/svg">
</g>
<g xmlns="http://www.w3.org/2000/svg">
</g>
<g xmlns="http://www.w3.org/2000/svg">
</g>
<g xmlns="http://www.w3.org/2000/svg">
</g>
<g xmlns="http://www.w3.org/2000/svg">
</g>
<g xmlns="http://www.w3.org/2000/svg">
</g>
<g xmlns="http://www.w3.org/2000/svg">
</g>
<g xmlns="http://www.w3.org/2000/svg">
</g>
<g xmlns="http://www.w3.org/2000/svg">
</g>
<g xmlns="http://www.w3.org/2000/svg">
</g>
<g xmlns="http://www.w3.org/2000/svg">
</g>
<g xmlns="http://www.w3.org/2000/svg">
</g>
</g></svg>
