<?xml version="1.0"?>
<svg xmlns="http://www.w3.org/2000/svg" xmlns:xlink="http://www.w3.org/1999/xlink" xmlns:svgjs="http://svgjs.com/svgjs" version="1.1" width="512" height="512" x="0" y="0" viewBox="0 0 511.216 511.216" style="enable-background:new 0 0 512 512" xml:space="preserve" class=""><g>
<path xmlns="http://www.w3.org/2000/svg" style="" d="M440.131,25C317.112-8.333,194.104-8.333,71.075,25c-18.677,5.056-31.733,21.995-31.733,41.333  v187.392c0,124.192,86.965,230.912,207.68,256.587c5.632,1.205,11.541,1.205,17.184,0  c120.683-25.664,207.669-132.395,207.669-256.587V66.333C471.875,46.995,458.819,30.056,440.131,25" fill="#e8eae9" data-original="#e8eae9" class=""/>
<path xmlns="http://www.w3.org/2000/svg" style="" d="M255.608,457.608c-94.56-21.333-162.933-106.667-162.933-203.872V74.461  c54.176-14.027,108.96-21.131,162.933-21.131c53.995,0,108.747,7.104,162.933,21.12v179.275  C418.541,350.941,350.179,436.253,255.608,457.608" fill="#21a970" data-original="#4cdbc4" class=""/>
<path xmlns="http://www.w3.org/2000/svg" style="" d="M359.896,162.312c-10.411-10.4-27.296-10.4-37.707,0l-95.211,95.232l-37.952-37.984  c-10.411-10.4-27.307-10.4-37.707,0c-10.432,10.421-10.432,27.317,0,37.728l56.8,56.811c10.421,10.4,27.296,10.4,37.717,0  l114.048-114.08C370.307,189.619,370.307,172.723,359.896,162.312" fill="#ffffff" data-original="#ffffff"/>
<g xmlns="http://www.w3.org/2000/svg">
</g>
<g xmlns="http://www.w3.org/2000/svg">
</g>
<g xmlns="http://www.w3.org/2000/svg">
</g>
<g xmlns="http://www.w3.org/2000/svg">
</g>
<g xmlns="http://www.w3.org/2000/svg">
</g>
<g xmlns="http://www.w3.org/2000/svg">
</g>
<g xmlns="http://www.w3.org/2000/svg">
</g>
<g xmlns="http://www.w3.org/2000/svg">
</g>
<g xmlns="http://www.w3.org/2000/svg">
</g>
<g xmlns="http://www.w3.org/2000/svg">
</g>
<g xmlns="http://www.w3.org/2000/svg">
</g>
<g xmlns="http://www.w3.org/2000/svg">
</g>
<g xmlns="http://www.w3.org/2000/svg">
</g>
<g xmlns="http://www.w3.org/2000/svg">
</g>
<g xmlns="http://www.w3.org/2000/svg">
</g>
</g></svg>
